<?xml version="1.0" encoding="UTF-8" standalone="no"?>
<!-- Created with Inkscape (http://www.inkscape.org/) -->

<svg
   width="200"
   height="200"
   viewBox="0 0 52.916665 52.916666"
   version="1.1"
   id="svg5"
   inkscape:version="1.2.1 (9c6d41e410, 2022-07-14)"
   sodipodi:docname="defaultjuke.svg"
   inkscape:export-filename="defaultjuke.png"
   inkscape:export-xdpi="96"
   inkscape:export-ydpi="96"
   xmlns:inkscape="http://www.inkscape.org/namespaces/inkscape"
   xmlns:sodipodi="http://sodipodi.sourceforge.net/DTD/sodipodi-0.dtd"
   xmlns="http://www.w3.org/2000/svg"
   xmlns:svg="http://www.w3.org/2000/svg">
  <sodipodi:namedview
     id="namedview7"
     pagecolor="#1c0043"
     bordercolor="#000000"
     borderopacity="0.25"
     inkscape:showpageshadow="2"
     inkscape:pageopacity="0"
     inkscape:pagecheckerboard="0"
     inkscape:deskcolor="#d1d1d1"
     inkscape:document-units="mm"
     showgrid="false"
     inkscape:zoom="2.0989207"
     inkscape:cx="61.936595"
     inkscape:cy="86.473015"
     inkscape:window-width="1920"
     inkscape:window-height="991"
     inkscape:window-x="2391"
     inkscape:window-y="-9"
     inkscape:window-maximized="1"
     inkscape:current-layer="layer1" />
  <defs
     id="defs2" />
  <g
     inkscape:label="Layer 1"
     inkscape:groupmode="layer"
     id="layer1">
    <g
       id="g501"
       inkscape:label="originals"
       style="display:none">
      <circle
         style="display:inline;fill:#7d7f99;stroke:#00ffff;stroke-width:0;stroke-opacity:0.982659"
         id="path234"
         cx="26.458334"
         cy="26.458334"
         r="26.458332" />
      <path
         style="display:none;fill:#ffffff;stroke:#00ffff;stroke-width:0;stroke-opacity:0.982659"
         d="m 4.0068965,37.117397 c 0,0 -1.6486331,-5.329038 10.5733885,-4.541775 4.539007,0.292373 10.803723,3.911014 20.600228,0.7859 4.385649,-1.399035 5.400938,-4.108621 6.602751,-6.148115 3.382186,2.481667 -1.923956,10.782274 -10.753307,12.284372 -1.658138,5.584558 -4.062305,11.745236 -6.209754,13.418888 -5.245624,4.088268 -9.627402,-2.166262 -12.873449,-3.996466 -1.750483,-0.986966 3.475968,-7.248264 5.066299,-10.562023 C 13.890739,36.500762 8.2727218,35.703669 4.0068965,37.117397 Z"
         id="path400"
         sodipodi:nodetypes="cssccsscc" />
      <rect
         style="fill:#ffffff;fill-opacity:0.503417;stroke-width:0.264583"
         id="rect469"
         width="19.223389"
         height="14.97479"
         x="16.84664"
         y="32.534515" />
      <path
         id="path471"
         style="display:inline;fill:#ffffff;stroke:#00ffff;stroke-width:0;stroke-opacity:0.982659"
         d="m 26.458333,20.367232 a 6.0911365,6.0911365 0 0 0 -6.091101,6.091101 6.0911365,6.0911365 0 0 0 6.091101,6.091101 6.0911365,6.0911365 0 0 0 6.091101,-6.091101 6.0911365,6.0911365 0 0 0 -6.091101,-6.091101 z m 0,4.412134 a 1.6789219,1.6789219 0 0 1 1.678968,1.678967 1.6789219,1.6789219 0 0 1 -1.678968,1.678968 1.6789219,1.6789219 0 0 1 -1.678967,-1.678968 1.6789219,1.6789219 0 0 1 1.678967,-1.678967 z" />
      <path
         id="path473"
         style="display:inline;fill:#ffffff;stroke:#00ffff;stroke-width:0;stroke-opacity:0.982659"
         d="M 21.904668,5.0282822 A 1.1643746,5.6351051 63.468921 0 0 15.488792,7.2461213 1.1643746,5.6351051 63.468921 0 0 12.29284,10.396229 1.1643746,5.6351051 63.468921 0 0 18.708715,8.1783899 1.1643746,5.6351051 63.468921 0 0 21.904668,5.0282822 Z m -3.481199,1.9441556 a 0.32094079,1.5532243 63.468921 0 1 -0.880941,0.8683041 0.32094079,1.5532243 63.468921 0 1 -1.76849,0.611332 0.32094079,1.5532243 63.468921 0 1 0.880942,-0.8683048 0.32094079,1.5532243 63.468921 0 1 1.768489,-0.6113313 z" />
      <path
         id="path475"
         style="display:inline;fill:#ffffff;stroke:#00ffff;stroke-width:0;stroke-opacity:0.982659"
         d="m 39.751286,14.034899 a 6.652593,4.3339476 22.194299 0 0 -6.290115,3.202465 6.652593,4.3339476 22.194299 0 0 6.455817,5.880463 6.652593,4.3339476 22.194299 0 0 6.290114,-3.202465 6.652593,4.3339476 22.194299 0 0 -6.455816,-5.880463 z m 0.06002,3.289644 a 1.8336783,1.1945815 22.194299 0 1 1.7795,1.620907 1.8336783,1.1945815 22.194299 0 1 -1.733824,0.882736 1.8336783,1.1945815 22.194299 0 1 -1.779499,-1.620906 1.8336783,1.1945815 22.194299 0 1 1.733823,-0.882737 z" />
      <path
         id="path477"
         style="display:inline;fill:#ffffff;stroke:#00ffff;stroke-width:0;stroke-opacity:0.982659"
         d="m 32.067902,5.6639335 a 6.2225909,2.0285411 6.5143541 0 0 -6.105715,1.4443978 6.2225909,2.0285411 6.5143541 0 0 6.266559,2.652246 6.2225909,2.0285411 6.5143541 0 0 6.105716,-1.4443972 6.2225909,2.0285411 6.5143541 0 0 -6.26656,-2.6522466 z m 0.05826,1.4837178 A 1.7151552,0.5591341 6.5143553 0 1 33.853496,7.878724 1.7151552,0.5591341 6.5143553 0 1 32.1705,8.2768614 1.7151552,0.5591341 6.5143553 0 1 30.443167,7.5457893 1.7151552,0.5591341 6.5143553 0 1 32.126162,7.1476513 Z" />
    </g>
    <g
       id="g561"
       inkscape:label="merged"
       style="display:inline;fill:#000000;fill-opacity:0.503417">
      <path
         id="path234-6"
         style="display:inline;fill:#000000;stroke:#00ffff;stroke-width:0;stroke-opacity:0.982659;fill-opacity:0.50341702"
         d="M 26.458333 0 A 26.458332 26.458332 0 0 0 0 26.458333 A 26.458332 26.458332 0 0 0 26.458333 52.916667 A 26.458332 26.458332 0 0 0 52.916667 26.458333 A 26.458332 26.458332 0 0 0 26.458333 0 z M 21.498429 4.9888428 A 1.1643746 5.6351051 63.468921 0 1 21.904606 5.0281169 A 1.1643746 5.6351051 63.468921 0 1 18.708936 8.1783122 A 1.1643746 5.6351051 63.468921 0 1 12.29279 10.396265 A 1.1643746 5.6351051 63.468921 0 1 15.488977 7.2460693 A 1.1643746 5.6351051 63.468921 0 1 21.498429 4.9888428 z M 30.469458 5.5774373 A 6.2225909 2.0285411 6.5143541 0 1 32.06781 5.663737 A 6.2225909 2.0285411 6.5143541 0 1 38.334611 8.3162882 A 6.2225909 2.0285411 6.5143541 0 1 32.228524 9.7606445 A 6.2225909 2.0285411 6.5143541 0 1 25.96224 7.1080933 A 6.2225909 2.0285411 6.5143541 0 1 30.469458 5.5774373 z M 18.36012 6.9623657 A 0.32094079 1.5532243 63.468921 0 0 16.654797 7.5835164 A 0.32094079 1.5532243 63.468921 0 0 15.774231 8.4521973 A 0.32094079 1.5532243 63.468921 0 0 17.542598 7.8408651 A 0.32094079 1.5532243 63.468921 0 0 18.423682 6.9721842 A 0.32094079 1.5532243 63.468921 0 0 18.36012 6.9623657 z M 31.718477 7.124113 A 1.7151552 0.5591341 6.5143553 0 0 30.443103 7.5457926 A 1.7151552 0.5591341 6.5143553 0 0 32.170646 8.2770142 A 1.7151552 0.5591341 6.5143553 0 0 33.853748 7.8785889 A 1.7151552 0.5591341 6.5143553 0 0 32.126204 7.1478841 A 1.7151552 0.5591341 6.5143553 0 0 31.718477 7.124113 z M 38.034888 13.842049 A 6.652593 4.3339476 22.194299 0 1 39.751062 14.034802 A 6.652593 4.3339476 22.194299 0 1 46.206999 19.91558 A 6.652593 4.3339476 22.194299 0 1 39.916943 23.117969 A 6.652593 4.3339476 22.194299 0 1 33.461007 17.237191 A 6.652593 4.3339476 22.194299 0 1 38.034888 13.842049 z M 39.357288 17.271814 A 1.8336783 1.1945815 22.194299 0 0 38.077262 18.207157 A 1.8336783 1.1945815 22.194299 0 0 39.856999 19.828247 A 1.8336783 1.1945815 22.194299 0 0 41.590743 18.945614 A 1.8336783 1.1945815 22.194299 0 0 39.811523 17.324524 A 1.8336783 1.1945815 22.194299 0 0 39.357288 17.271814 z M 26.458333 20.367232 A 6.0911365 6.0911365 0 0 1 32.549434 26.458333 A 6.0911365 6.0911365 0 0 1 26.858309 32.534448 L 36.07015 32.534448 L 36.07015 47.509245 L 16.846517 47.509245 L 16.846517 32.534448 L 26.058358 32.534448 A 6.0911365 6.0911365 0 0 1 20.367232 26.458333 A 6.0911365 6.0911365 0 0 1 26.458333 20.367232 z M 26.458333 24.779366 A 1.6789219 1.6789219 0 0 0 24.779366 26.458333 A 1.6789219 1.6789219 0 0 0 26.458333 28.137301 A 1.6789219 1.6789219 0 0 0 28.137301 26.458333 A 1.6789219 1.6789219 0 0 0 26.458333 24.779366 z " />
    </g>
  </g>
</svg>
